<svg width="269" height="55" viewBox="0 0 269 55" fill="none" xmlns="http://www.w3.org/2000/svg">
<path d="M184.86 50C184.385 50 184 49.6089 184 49.1266V7.87343C184 7.39105 184.385 7 184.86 7H207.014C215.108 7 220.769 12.59 220.769 20.5987C220.769 26.2255 217.765 30.8661 213.096 33.0284C212.592 33.2618 212.382 33.8958 212.685 34.367L221.859 48.6492C222.232 49.2302 221.822 50 221.139 50H211.559C211.266 50 210.992 49.8475 210.834 49.5957L201.606 34.8706C201.449 34.6187 201.175 34.4662 200.881 34.4662H195.176C194.702 34.4662 194.317 34.8573 194.317 35.3397V49.1266C194.317 49.6089 193.932 50 193.457 50H184.86ZM194.317 24.1866C194.317 24.669 194.702 25.06 195.176 25.06H206.379C208.813 25.06 210.453 23.2862 210.453 20.76C210.453 18.18 208.813 16.4062 206.379 16.4062H195.176C194.702 16.4062 194.317 16.7973 194.317 17.2797V24.1866Z" fill="white"/>
<path d="M159.164 50C158.678 50 158.285 49.6089 158.285 49.1266V17.2797C158.285 16.7973 157.891 16.4062 157.406 16.4062H145.88C145.249 16.4062 144.824 15.7651 145.072 15.1888L148.375 7.52937C148.514 7.20822 148.832 7 149.183 7H180.121C180.607 7 181 7.39105 181 7.87343V15.5328C181 16.0152 180.607 16.4062 180.121 16.4062H169.656C169.171 16.4062 168.777 16.7973 168.777 17.2797V49.1266C168.777 49.6089 168.384 50 167.898 50H159.164Z" fill="white"/>
<path d="M117.851 50C117.381 50 117 49.6089 117 49.1266V7.87343C117 7.39105 117.381 7 117.851 7H144.148C144.759 7 145.171 7.64101 144.93 8.21734L141.734 15.8767C141.599 16.198 141.292 16.4062 140.951 16.4062H128.066C127.596 16.4062 127.215 16.7971 127.214 17.2794L127.213 22.4663C127.213 22.9488 127.594 23.34 128.064 23.34H137.148C137.74 23.34 138.151 23.945 137.946 24.5152L135.276 31.9596C135.153 32.3031 134.834 32.5313 134.477 32.5313H128.064C127.594 32.5313 127.213 32.9223 127.213 33.4047V39.9353C127.213 40.4177 127.594 40.8088 128.064 40.8088H143.278C143.748 40.8088 144.129 41.1998 144.129 41.6822V49.1266C144.129 49.609 143.748 50 143.278 50H117.851Z" fill="white"/>
<path d="M89.4666 50C89.1144 50 88.7985 49.7784 88.6712 49.4422L73.0584 8.18902C72.8418 7.6166 73.2543 7 73.8539 7H82.5187C82.8732 7 83.1908 7.22452 83.3164 7.56398L93.2292 34.3529C93.5075 35.1049 94.5464 35.1049 94.8247 34.3529L104.738 7.56398C104.863 7.22452 105.181 7 105.535 7H114.146C114.746 7 115.159 7.61736 114.941 8.18991L99.2781 49.443C99.1506 49.7788 98.8349 50 98.483 50H89.4666Z" fill="white"/>
<path d="M251.746 7.00049C252.079 7.00049 252.378 7.2003 252.498 7.50378L268.944 48.9253C269.15 49.4426 268.76 50.0003 268.193 50.0005H259.005C258.669 50.0005 258.369 49.7969 258.251 49.4895L255.263 41.7228L251.969 33.0151L247.028 20.2224L243.021 30.5965H249.562C250.12 30.5965 250.509 31.137 250.321 31.6509L247.466 39.4792C247.351 39.7932 247.048 40.0033 246.707 40.0033H239.444L238.793 41.7228L235.807 49.4895C235.688 49.797 235.387 50.0005 235.051 50.0005H225.807C225.241 50.0005 224.85 49.4433 225.055 48.9261L241.448 7.50455C241.569 7.20069 241.868 7.00055 242.201 7.00049H251.746Z" fill="white"/>
<path d="M0 32.9351C0 30.7618 1.76182 29 3.93514 29H6.32433C17.1909 29 26 37.8091 26 48.6757V51.0649C26 53.2382 24.2382 55 22.0649 55H3.93513C1.76182 55 0 53.2382 0 51.0649V32.9351Z" fill="#38C780"/>
<path d="M0 3.93513C0 1.76182 1.76182 0 3.93514 0H22.0649C24.2382 0 26 1.76182 26 3.93514V6.32433C26 17.1909 17.1909 26 6.32432 26H3.93513C1.76182 26 0 24.2382 0 22.0649V3.93513Z" fill="#38C780"/>
<path d="M29 48.6757C29 37.8091 37.8091 29 48.6757 29H51.0649C53.2382 29 55 30.7618 55 32.9351V51.0649C55 53.2382 53.2382 55 51.0649 55H32.9351C30.7618 55 29 53.2382 29 51.0649V48.6757Z" fill="#38C780"/>
<path d="M29 3.93513C29 1.76182 30.7618 0 32.9351 0H51.0649C53.2382 0 55 1.76182 55 3.93514V22.0649C55 24.2382 53.2382 26 51.0649 26H48.6757C37.8091 26 29 17.1909 29 6.32432V3.93513Z" fill="#38C780"/>
</svg>
