<?xml version="1.0" encoding="UTF-8" standalone="no"?>
<svg
   width="120"
   height="24"
   viewBox="0 0 120 24"
   fill="none"
   version="1.1"
   id="svg8"
   sodipodi:docname="Achra-logo-light.svg"
   inkscape:export-filename="Achra-logo-light.png"
   inkscape:export-xdpi="5600"
   inkscape:export-ydpi="5600"
   inkscape:version="1.4 (e7c3feb1, 2024-10-09)"
   xmlns:inkscape="http://www.inkscape.org/namespaces/inkscape"
   xmlns:sodipodi="http://sodipodi.sourceforge.net/DTD/sodipodi-0.dtd"
   xmlns="http://www.w3.org/2000/svg"
   xmlns:svg="http://www.w3.org/2000/svg">
  <sodipodi:namedview
     id="namedview8"
     pagecolor="#ffffff"
     bordercolor="#000000"
     borderopacity="0.25"
     inkscape:showpageshadow="2"
     inkscape:pageopacity="0.0"
     inkscape:pagecheckerboard="0"
     inkscape:deskcolor="#d1d1d1"
     inkscape:zoom="3.1112698"
     inkscape:cx="85.495638"
     inkscape:cy="64.764553"
     inkscape:window-width="1608"
     inkscape:window-height="994"
     inkscape:window-x="0"
     inkscape:window-y="25"
     inkscape:window-maximized="0"
     inkscape:current-layer="svg8" />
  <g
     clip-path="url(#clip0_648_2164)"
     id="g3">
    <path
       fill-rule="evenodd"
       clip-rule="evenodd"
       d="M12 15C15.2101 14.9928 18.4224 16.2389 20.8716 18.7384C21.4472 19.3258 21.9549 19.9561 22.3948 20.6193C22.6181 20.9559 22.4699 21.4078 22.1015 21.5654L18.2887 23.1973C18.0072 23.3178 17.6835 23.2246 17.4851 22.9889C17.3664 22.8479 17.2415 22.7104 17.1106 22.5768C16.5792 22.0344 15.9853 21.5948 15.3526 21.2578C14.3057 20.7002 13.1524 20.4238 12 20.4283C10.8476 20.4238 9.69436 20.7002 8.64741 21.2578C8.0147 21.5948 7.4208 22.0344 6.88943 22.5768C6.75847 22.7104 6.63363 22.8479 6.5149 22.9889C6.31647 23.2246 5.99273 23.3178 5.71129 23.1973L1.89845 21.5654C1.53009 21.4078 1.38193 20.9559 1.60518 20.6193C2.04508 19.9561 2.55279 19.3258 3.12834 18.7384C5.57755 16.2389 8.7899 14.9928 12 15Z"
       fill="#7A3AFF"
       id="path1" />
    <path
       fill-rule="evenodd"
       clip-rule="evenodd"
       d="M5.66244 3.87073C5.66244 6.83634 3.92174 9.36895 1.46925 10.3726C1.24058 10.4662 1.07394 10.6844 1.05498 10.9433L0.751846 15.0835C0.72218 15.4886 1.05452 15.8197 1.43022 15.7373C6.60726 14.6024 10.5 9.72077 10.5 3.87073C10.5 2.95941 10.4055 2.0716 10.2265 1.2178C10.1488 0.847438 9.77173 0.654007 9.44016 0.797521L5.99304 2.28953C5.72634 2.40497 5.57747 2.70438 5.61265 3.00726C5.64551 3.29018 5.66244 3.57835 5.66244 3.87073Z"
       fill="#7A3AFF"
       id="path2" />
    <path
       fill-rule="evenodd"
       clip-rule="evenodd"
       d="M18.3376 3.87073C18.3376 6.83634 20.0783 9.36895 22.5307 10.3726C22.7594 10.4662 22.9261 10.6844 22.945 10.9433L23.2482 15.0835C23.2778 15.4886 22.9455 15.8197 22.5698 15.7373C17.3927 14.6024 13.5 9.72077 13.5 3.87073C13.5 2.95941 13.5945 2.0716 13.7735 1.2178C13.8512 0.847438 14.2283 0.654007 14.5598 0.797521L18.007 2.28953C18.2737 2.40497 18.4225 2.70438 18.3873 3.00726C18.3545 3.29018 18.3376 3.57835 18.3376 3.87073Z"
       fill="#7A3AFF"
       id="path3" />
  </g>
  <path
     d="M85.4094 20.7592C85.2318 20.7592 85.0879 20.6153 85.0879 20.4377V3.56298C85.0879 3.38541 85.2318 3.24146 85.4094 3.24146H94.6075C97.9558 3.24146 100.297 5.51876 100.297 8.78144C100.297 11.2339 98.8749 13.2266 96.7084 14.0149L100.783 20.262C100.922 20.4759 100.769 20.7592 100.514 20.7592H96.4691C96.3592 20.7592 96.2569 20.703 96.1978 20.6103L92.2659 14.4309H89.3553V20.4377C89.3553 20.6153 89.2114 20.7592 89.0338 20.7592H85.4094ZM89.3553 10.5989H94.3449C95.3516 10.5989 96.03 9.8763 96.03 8.84714C96.03 7.79607 95.3516 7.07346 94.3449 7.07346H89.3553V10.5989Z"
     fill="#FAF9F8"
     id="path4" />
  <path
     d="M67.9607 20.7592C67.7831 20.7592 67.6392 20.6153 67.6392 20.4377V3.56298C67.6392 3.38541 67.7831 3.24146 67.9607 3.24146H71.5851C71.7626 3.24146 71.9066 3.38541 71.9066 3.56298V9.942H78.3624V3.56298C78.3624 3.38541 78.5064 3.24146 78.6839 3.24146H82.2864C82.464 3.24146 82.608 3.38541 82.608 3.56298V20.4377C82.608 20.6153 82.464 20.7592 82.2864 20.7592H78.6839C78.5064 20.7592 78.3624 20.6153 78.3624 20.4377V13.774H71.9066V20.4377C71.9066 20.6153 71.7626 20.7592 71.5851 20.7592H67.9607Z"
     fill="#FAF9F8"
     id="path5" />
  <path
     d="M57.3762 20.9997C52.1896 20.9997 48.4912 17.3429 48.4912 11.9781C48.4912 6.63518 52.1896 3.00024 57.3324 3.00024C61.8946 3.00024 65.2222 5.94416 66.1783 9.97558C66.225 10.1726 66.0727 10.3577 65.8702 10.3577H62.0839C61.94 10.3577 61.8147 10.2616 61.7681 10.1254C61.1694 8.37581 59.4955 7.02933 57.42 7.02933C54.8376 7.02933 52.868 9.02197 52.868 11.9781C52.868 14.9123 54.8595 16.8612 57.4637 16.8612C59.6039 16.8612 61.2411 15.6333 61.8354 13.8338C61.8808 13.6961 62.0068 13.5985 62.1518 13.5985H65.9258C66.1243 13.5985 66.2757 13.777 66.2359 13.9715C65.3838 18.1287 62.0096 20.9997 57.3762 20.9997Z"
     fill="#FAF9F8"
     id="path6" />
  <path
     d="M42.6621 3.24146C42.7947 3.24146 42.9139 3.32285 42.9619 3.44649L49.518 20.3211C49.5998 20.5318 49.4444 20.759 49.2184 20.7591H45.5558C45.4219 20.7591 45.3018 20.6762 45.2546 20.5509L44.064 17.3869L42.7509 13.8394L40.7813 8.62789L39.184 12.8542H41.7914C42.0137 12.8542 42.1687 13.0743 42.0941 13.2837L40.9559 16.4728C40.9102 16.6008 40.789 16.6863 40.6532 16.6864H37.7579L37.4986 17.3869L36.3076 20.5509C36.2604 20.6761 36.1406 20.7591 36.0068 20.7591H32.3219C32.0959 20.7591 31.9404 20.5321 32.022 20.3214L38.557 3.4468C38.6049 3.32301 38.7241 3.24147 38.8569 3.24146H42.6621Z"
     fill="#FAF9F8"
     id="path7" />
  <path
     d="M112.758 3.24146C112.891 3.24146 113.01 3.32285 113.058 3.44649L119.614 20.3211C119.696 20.5318 119.541 20.759 119.315 20.7591H115.652C115.518 20.7591 115.398 20.6761 115.351 20.5509L114.16 17.3869L112.847 13.8394L110.877 8.62789L109.28 12.8542H111.888C112.11 12.8542 112.265 13.0743 112.19 13.2837L111.052 16.4728C111.006 16.6008 110.885 16.6863 110.749 16.6864H107.854L107.595 17.3869L106.404 20.5509C106.357 20.6762 106.237 20.7591 106.103 20.7591H102.418C102.192 20.7591 102.037 20.5321 102.118 20.3214L108.653 3.4468C108.701 3.32302 108.82 3.24148 108.953 3.24146H112.758Z"
     fill="#FAF9F8"
     id="path8" />
  <defs
     id="defs8">
    <clipPath
       id="clip0_648_2164">
      <rect
         width="24"
         height="24"
         fill="white"
         id="rect8" />
    </clipPath>
  </defs>
</svg>
